<svg width="27" height="27" viewBox="0 0 27 27" fill="none" xmlns="http://www.w3.org/2000/svg">
<rect width="27" height="27" fill="#95D5D0"/>
<path d="M7.44744 12.1387C9.06744 15.3225 11.6774 17.9212 14.8612 19.5525L17.3362 17.0775C17.6399 16.7737 18.0899 16.6725 18.4837 16.8075C19.7437 17.2237 21.1049 17.4487 22.4999 17.4487C23.1187 17.4487 23.6249 17.955 23.6249 18.5737V22.5C23.6249 23.1187 23.1187 23.625 22.4999 23.625C11.9362 23.625 3.37494 15.0637 3.37494 4.5C3.37494 3.88125 3.88119 3.375 4.49994 3.375H8.43744C9.05619 3.375 9.56244 3.88125 9.56244 4.5C9.56244 5.90625 9.78744 7.25625 10.2037 8.51625C10.3274 8.91 10.2374 9.34875 9.92244 9.66375L7.44744 12.1387Z" fill="white"/>
</svg>
