<svg width="21" height="19" viewBox="0 0 21 19" fill="none" xmlns="http://www.w3.org/2000/svg">
<path d="M20.2902 0.681919C20.1094 0.561383 19.8884 0.541294 19.6875 0.621651L13.5 3.09263L7.3125 0.621651C7.15179 0.551339 6.99107 0.551339 6.83036 0.621651L0.401786 3.19308C0.160714 3.28348 0 3.52455 0 3.78571V17.9286C0 18.1395 0.110491 18.3404 0.28125 18.4609C0.391741 18.5312 0.512277 18.5714 0.642857 18.5714C0.723214 18.5714 0.803571 18.5614 0.883929 18.5212L7.07143 16.0502L13.2589 18.5212C13.4196 18.5915 13.5804 18.5915 13.7411 18.5212L20.1696 15.9498C20.4107 15.8594 20.5714 15.6183 20.5714 15.3571V1.21429C20.5714 1.00335 20.4609 0.802455 20.2902 0.681919ZM7.39286 2.03795L13.1786 4.34821V17.1049L7.39286 14.7946V2.03795ZM1.28571 4.21763L6.75 2.03795V14.7946L1.28571 16.9743V4.21763ZM19.2857 14.9252L13.8214 17.1049V4.34821L19.2857 2.16853V14.9252Z" fill="white"/>
</svg>
